# xmcd
# Copyright (C) 1995-1998 Ti Kan
#
# Track frame offsets:
#       150
#       13755
#       27235
#       51977
#       66762
#       79197
#       92528
#       105216
#       117174
#       129517
#       148216
#       162800
#
# Disc length: 2393 seconds
#
# Revision: 0
# Processed by: cddbd v1.5.2PL0 Copyright (c) Steve Scherf et al.
# Submitted via: CD-Import v1.0
#
DISCID=9709570c
DTITLE=Imelda May - Love Tattoo
DYEAR=07
DGENRE=
TTITLE0=Johnny Got A Boom Boom
TTITLE1=Feel Me
TTITLE2=Knock 123
TTITLE3=Wild About My Lovin
TTITLE4=Big Bad Handsome Man
TTITLE5=Love Tattoo
TTITLE6=Meet You At The Moon
TTITLE7=Smoker's Song
TTITLE8=Smotherin' Me
TTITLE9=Falling In Love With You Again
TTITLE10=It's Your Voodoo Working
TTITLE11=Watcha Gonna Do
EXTD=
EXTT0=
EXTT1=
EXTT2=
EXTT3=
EXTT4=
EXTT5=
EXTT6=
EXTT7=
EXTT8=
EXTT9=
EXTT10=
EXTT11=
PLAYORDER=
